<svg width="41" height="50" fill="none" xmlns="http://www.w3.org/2000/svg"><g clip-path="url(#a)"><path d="M26.346 34.073c.338.634.508 1.585.508 2.853 0 1.276-.17 2.233-.508 2.871-.338.638-.85.957-1.535.957-.678 0-1.188-.319-1.53-.957-.343-.638-.514-1.595-.514-2.871 0-1.268.171-2.219.514-2.853.342-.634.852-.951 1.53-.951.685 0 1.197.317 1.535.951Zm-10.233-2.457c.68 0 1.19-.32 1.529-.96.34-.639.51-1.593.51-2.863s-.171-2.223-.51-2.857c-.34-.635-.85-.953-1.529-.953-.68 0-1.19.318-1.534.953-.344.634-.516 1.587-.516 2.857 0 1.27.172 2.225.516 2.864.344.639.855.959 1.534.959Zm24.78-2.205c0 11.354-9.15 20.558-20.434 20.558C9.174 49.97.025 40.765.025 29.411A20.571 20.571 0 0 1 11.03 11.168c.957 2.153 2.26 4.008 3.691 5.241.997.86 2.011 1.377 2.965 1.517a3.449 3.449 0 0 0 2.773 1.398c1.913 0 3.462-1.56 3.462-3.483 0-1.924-1.55-3.483-3.462-3.483-1.86 0-3.378 1.478-3.458 3.33a5.847 5.847 0 0 1-1.043-.732c-1.227-1.058-2.358-2.683-3.203-4.594a20.261 20.261 0 0 1 7.704-1.51c11.285 0 20.433 9.205 20.433 20.56v-.001Zm-28.648-1.612c0 1.342.36 2.439 1.08 3.291.72.852 1.65 1.278 2.787 1.278s2.064-.426 2.78-1.278c.716-.852 1.074-1.95 1.074-3.291 0-1.35-.36-2.45-1.08-3.297-.72-.848-1.645-1.273-2.774-1.273-1.137 0-2.066.424-2.786 1.273-.72.848-1.08 1.947-1.08 3.297Zm16.261-5.026h-1.519L12.392 41.965h1.534l14.58-19.192Zm.164 14.165c0-1.342-.36-2.439-1.079-3.29-.719-.853-1.646-1.279-2.782-1.279-1.135 0-2.063.426-2.782 1.278-.719.852-1.078 1.95-1.078 3.291 0 1.343.359 2.44 1.078 3.291.72.853 1.647 1.278 2.782 1.278 1.136 0 2.063-.426 2.782-1.278.72-.852 1.079-1.949 1.079-3.29ZM14.96 16.125c1.122.968 2.24 1.465 3.246 1.465.39 0 .763-.074 1.113-.225 1.194-.515 1.937-1.851 2.092-3.761l-1.155-.095c-.12 1.458-.614 2.447-1.393 2.783-.816.353-1.962-.032-3.147-1.053-1.313-1.132-2.517-2.885-3.392-4.935s-1.308-4.137-1.218-5.874c.08-1.567.594-2.668 1.409-3.02.815-.352 1.961.032 3.146 1.054 1.313 1.132 2.517 2.885 3.392 4.935.127.297.246.6.355.901l1.09-.399a18.698 18.698 0 0 0-.38-.962c-.942-2.211-2.258-4.115-3.702-5.36C14.86.236 13.312-.205 12.057.337S10.053 2.311 9.948 4.37c-.098 1.912.368 4.182 1.31 6.393.943 2.211 2.258 4.115 3.703 5.361Z" fill="#FF9B04"/></g><defs><clipPath id="a"><path fill="#fff" d="M0 0h41v50H0z"/></clipPath></defs></svg>