<svg width="50" height="50" fill="none" xmlns="http://www.w3.org/2000/svg"><g clip-path="url(#a)" fill="#FF9B04"><path d="M21.355.026h-7.492a.926.926 0 0 0-.926.926V8.42A39.934 39.934 0 0 0 21.355.026Zm7.67 20.942a.927.927 0 0 1-.697-1.716 49.487 49.487 0 0 1 8.682-2.58v-6.56a26.902 26.902 0 0 1-7.324 1.13h-.087a.927.927 0 1 1 .085-1.852 25.497 25.497 0 0 0 7.326-1.224V.952a.926.926 0 0 0-.926-.926h-.053c-2.35 4.04-7.781 5.46-8.056 5.528a.926.926 0 0 1-.45-1.796c.053-.014 4.023-1.056 6.25-3.732H23.677a40.98 40.98 0 0 1-10.741 10.645v3.349a43.837 43.837 0 0 1 8.07-3.764.926.926 0 1 1 .578 1.76 44.02 44.02 0 0 0-8.648 4.168v5.038c2.311-1.982 5.393-4.351 7.99-5.39a.926.926 0 1 1 .687 1.72c-2.773 1.11-6.31 4.02-8.566 6.039.154.31.469.506.815.509h22.222a.926.926 0 0 0 .926-.926V18.57a47.24 47.24 0 0 0-7.985 2.397ZM25.957 11.1c-.285.019-.575.047-.867.084a.926.926 0 1 1-.234-1.838c.332-.042.661-.074.986-.094a.936.936 0 0 1 .981.866.926.926 0 0 1-.866.982ZM4.19 30.68a.926.926 0 0 1 .828 1.656c-1.62.583-3.323.896-5.044.929v4.438a28.439 28.439 0 0 0 11.509-4.597.927.927 0 0 1 1.456.923.926.926 0 0 1-.4.598 30.05 30.05 0 0 1-12.565 4.96V49.1a.926.926 0 0 0 .925.926h.415a98.573 98.573 0 0 1 7.335-6.634.926.926 0 0 1 1.167 1.437 93.814 93.814 0 0 0-5.856 5.197h8.937a32.907 32.907 0 0 1 11.15-7.667V36.57a31.097 31.097 0 0 0-7.844 3.655.926.926 0 1 1-.978-1.571 31.968 31.968 0 0 1 8.822-3.997v-7.78a.926.926 0 0 0-.925-.925H21.79a21.17 21.17 0 0 0-3.507 3.363 28.197 28.197 0 0 1-2.873 3.027.926.926 0 0 1-1.244-1.37 26.371 26.371 0 0 0 2.683-2.829 22.31 22.31 0 0 1 2.072-2.191H.9a.926.926 0 0 0-.926.926v4.528a14.304 14.304 0 0 0 4.215-.727Zm9.503 10.076a.927.927 0 0 1-.22 1.291 50.5 50.5 0 0 0-.913.66.927.927 0 0 1-1.098-1.492c.31-.228.624-.455.94-.68a.927.927 0 0 1 1.29.221Zm1.858 9.27h7.57a.926.926 0 0 0 .927-.926v-4.719a31.487 31.487 0 0 0-8.497 5.645ZM25.9 41.46v7.64a.926.926 0 0 0 .925.926h3.79a52.907 52.907 0 0 0-4.716-8.566Zm18.153-5.398c-3.445-1.475-6.334-5.962-8.372-10.11h-8.686a40.092 40.092 0 0 1 5.942 4.908.924.924 0 0 1 0 1.323.925.925 0 0 1-1.322-.027 38.097 38.097 0 0 0-5.716-4.7v10.671c2.426 3.52 5.327 8.148 6.69 11.9h7.364a22.966 22.966 0 0 1-2.932-8.192 13.546 13.546 0 0 0-.676-2.6.926.926 0 0 1 1.74-.638c.352.957.61 1.948.767 2.956a21.133 21.133 0 0 0 3.312 8.474h6.883a.91.91 0 0 0 .76-.427 40.726 40.726 0 0 0-8.735-9.953.925.925 0 0 1-.18-1.313.926.926 0 0 1 1.316-.149 42.774 42.774 0 0 1 7.765 8.263v-6.013a21.023 21.023 0 0 0-5.92-4.372Zm-10.454 6.51a.924.924 0 0 1-1.171-.586 5.365 5.365 0 0 0-3.118-3.119.926.926 0 1 1 .586-1.756 7.236 7.236 0 0 1 4.289 4.289.925.925 0 0 1-.585 1.171h-.001Zm2.223-6.588a.925.925 0 0 1-1.283-.261 19.29 19.29 0 0 0-.621-.887.926.926 0 1 1 1.49-1.1c.233.317.459.638.676.965.282.426.165 1-.261 1.283Z"/><path d="M44.783 34.36a20.1 20.1 0 0 1 5.19 3.535V26.878a.926.926 0 0 0-.925-.926H37.754c1.842 3.604 4.28 7.23 7.03 8.408Z"/></g><defs><clipPath id="a"><path fill="#fff" d="M0 0h50v50H0z"/></clipPath></defs></svg>