<svg width="50" height="50" fill="none" xmlns="http://www.w3.org/2000/svg"><path d="M8.188 23.004a4.86 4.86 0 1 1 9.718 0 4.86 4.86 0 0 1-9.718 0Z" fill="#FF9B04"/><path d="M6.944 13.762a4.115 4.115 0 1 1 8.23-.002 4.115 4.115 0 0 1-8.23.002Zm5.441-7.278a4.703 4.703 0 1 1 9.406 0 4.703 4.703 0 0 1-9.406 0Zm30.428 8.536a3.862 3.862 0 0 0-6.852-2.446 4.859 4.859 0 1 0-.796 1.678 3.842 3.842 0 0 0 .408 2.643 5.98 5.98 0 1 0 3.114 1.979 3.863 3.863 0 0 0 4.126-3.853Z" fill="#FF9B04"/><path d="M35.46 6.933a3.712 3.712 0 1 1 7.425 0 3.713 3.713 0 1 1-7.426 0ZM22.007 3.748a3.713 3.713 0 1 1 7.425-.001 3.713 3.713 0 0 1-7.425.001Z" fill="#FF9B04"/><path d="M37.28 32.042v1.903h7.957v9.512h-.021v5.073c0 .778-.63 1.409-1.409 1.409h-2.564a1.41 1.41 0 0 1-1.409-1.41v-5.072h-1.382v5.073a1.41 1.41 0 0 1-1.409 1.409H34.48a1.41 1.41 0 0 1-1.41-1.41v-8.99h-1.366v3.874H18.176v-3.874H16.73v8.99a1.41 1.41 0 0 1-1.409 1.409h-2.564a1.41 1.41 0 0 1-1.409-1.409v-5.072H9.965v5.073c0 .778-.63 1.409-1.409 1.409H5.993a1.409 1.409 0 0 1-1.409-1.41V33.946h7.961v-1.903H4.584V6.396h1.338L7.895 28.66h12.867a4.546 4.546 0 0 1-1.91-3.707c0-1.611.837-3.026 2.1-3.835a5.552 5.552 0 1 1 3.518-.59 4.553 4.553 0 0 1 1.575 8.133h15.67l1.971-22.265h1.551v25.647h-7.956ZM19.734 40.78a1.128 1.128 0 1 0 2.256 0 1.128 1.128 0 0 0-2.256 0Zm3.298 0a1.128 1.128 0 1 0 2.256 0 1.128 1.128 0 0 0-2.256 0Zm4.901 0a1.127 1.127 0 1 0 2.255 0 1.127 1.127 0 0 0-2.255 0Z" fill="#FF9B04"/></svg>