<svg width="48" height="50" fill="none" xmlns="http://www.w3.org/2000/svg"><g clip-path="url(#a)" fill="#FF9B04"><path d="M46.322 30.026h-11.65a4.267 4.267 0 0 0-3.68 2.125 4.227 4.227 0 0 0 0 4.236 4.267 4.267 0 0 0 3.68 2.126h11.65a1.667 1.667 0 0 0 1.675-1.668v-5.151c0-.443-.176-.867-.49-1.18a1.681 1.681 0 0 0-1.185-.488ZM34.939 36.39a2.139 2.139 0 0 1-1.508-.621 2.118 2.118 0 0 1 0-3.001 2.139 2.139 0 0 1 3.016 0 2.115 2.115 0 0 1 0 3c-.4.399-.943.622-1.508.622Z"/><path d="M28.276 34.27a6.357 6.357 0 0 1 1.876-4.5 6.418 6.418 0 0 1 4.52-1.866h11.194v-7.282c0-.557-.223-1.09-.618-1.484a2.114 2.114 0 0 0-1.49-.614h-.326a3.469 3.469 0 0 0-.47-2.68L33.716 1.62A3.528 3.528 0 0 0 28.861.584L5.027 15.925a3.487 3.487 0 0 0-1.585 2.599H2.136c-.56 0-1.095.22-1.49.614a2.093 2.093 0 0 0-.618 1.484v27.23c0 .557.222 1.09.617 1.484a2.11 2.11 0 0 0 1.49.614h41.622c.559 0 1.095-.22 1.49-.614a2.09 2.09 0 0 0 .618-1.484v-7.217H34.672a6.418 6.418 0 0 1-4.52-1.866 6.357 6.357 0 0 1-1.876-4.5ZM5.43 18.524c.087-.393.327-.736.666-.955L29.929 2.228a1.553 1.553 0 0 1 2.136.456l.776 1.194-22.753 14.646h-4.66ZM35.62 8.153l5.69 8.756a1.527 1.527 0 0 1 .027 1.616h-21.83L35.619 8.152Z"/></g><defs><clipPath id="a"><path fill="#fff" d="M0 0h48v50H0z"/></clipPath></defs></svg>