<svg width="10" height="5" fill="none" xmlns="http://www.w3.org/2000/svg"><g clip-path="url(#a)"><path d="M.45.48A.672.672 0 0 1 .894.322a.67.67 0 0 1 .443.156L5 3.531 8.675.47a.66.66 0 0 1 .438-.146.68.68 0 0 1 .45.156.469.469 0 0 1 .187.37.468.468 0 0 1-.188.37L5.35 4.72a.458.458 0 0 1-.162.088.64.64 0 0 1-.188.026.65.65 0 0 1-.188-.026.461.461 0 0 1-.162-.088L.437 1.209a.45.45 0 0 1-.174-.36c0-.143.062-.266.187-.37Z" fill="#777"/></g><defs><clipPath id="a"><path fill="#fff" transform="rotate(90 5 5)" d="M0 0h5v10H0z"/></clipPath></defs></svg>