<svg width="19" height="22" fill="none" xmlns="http://www.w3.org/2000/svg"><g clip-path="url(#a)"><path d="M14.662 3.507H4.338a.647.647 0 0 0-.645.642v5.138a.64.64 0 0 0 .645.643h10.324a.647.647 0 0 0 .645-.643V4.15a.64.64 0 0 0-.645-.642Zm-.645 5.138H4.983V4.791h9.034v3.854ZM17.243.081H1.757c-.4 0-.782.158-1.065.44a1.495 1.495 0 0 0-.44 1.059v18.84a1.497 1.497 0 0 0 1.505 1.499h15.486c.4 0 .782-.158 1.065-.44.282-.28.44-.662.44-1.059V1.58c0-.397-.158-.779-.44-1.06a1.509 1.509 0 0 0-1.065-.439Zm.215 20.339a.214.214 0 0 1-.215.214H1.757a.215.215 0 0 1-.215-.214V1.58a.214.214 0 0 1 .215-.214h15.486a.215.215 0 0 1 .215.214v18.84Zm-6.883-7.28a1.067 1.067 0 0 1-.663.99 1.08 1.08 0 0 1-1.172-.232 1.069 1.069 0 0 1 .76-1.828 1.076 1.076 0 0 1 1.075 1.071Zm0 4.283a1.067 1.067 0 0 1-.663.989 1.08 1.08 0 0 1-1.172-.232 1.069 1.069 0 0 1 .76-1.828 1.076 1.076 0 0 1 1.075 1.071ZM6.274 13.14a1.067 1.067 0 0 1-.664.989 1.08 1.08 0 0 1-1.172-.232 1.069 1.069 0 0 1 .76-1.828 1.072 1.072 0 0 1 1.076 1.071Zm0 4.282a1.067 1.067 0 0 1-.664.989 1.08 1.08 0 0 1-1.172-.232 1.069 1.069 0 0 1 .76-1.828 1.072 1.072 0 0 1 1.076 1.071Zm8.603-4.282a1.067 1.067 0 0 1-.664.989 1.08 1.08 0 0 1-1.172-.232 1.069 1.069 0 0 1 .76-1.828 1.076 1.076 0 0 1 1.076 1.071Zm0 4.282a1.067 1.067 0 0 1-.664.989 1.08 1.08 0 0 1-1.172-.232 1.069 1.069 0 0 1 .76-1.828 1.076 1.076 0 0 1 1.076 1.071Z" fill="#222"/></g><defs><clipPath id="a"><path fill="#fff" d="M0 0h19v22H0z"/></clipPath></defs></svg>