<svg width="22" height="22" fill="none" xmlns="http://www.w3.org/2000/svg"><g clip-path="url(#a)" fill="#222" stroke="#222" stroke-width=".2"><path d="M21.059 4.052H7.069c-.336 0-.534.236-.448.584l2.02 6.948c.043.18.223.314.447.314h9.999c.223 0 .404-.133.447-.314l1.972-6.948c.077-.227-.043-.584-.447-.584Zm-2.286 6.905H9.444L9.041 9.57h10.136l-.404 1.388Zm.627-2.29H8.757l-.4-1.388h11.447L19.4 8.667Zm.67-2.33H8.1L7.696 4.95h12.783l-.408 1.388Z"/><path d="M4.602 1.044a.434.434 0 0 0-.447-.357H.473v.899H3.79L6.84 13.87a.434.434 0 0 0 .447.357h11.838v-.941H7.648L4.602 1.044Zm13.14 14.576H7.292v.897h10.45v-.898Zm-.542 2.105c-.988 0-1.791.807-1.791 1.791 0 .989.807 1.792 1.792 1.792a1.8 1.8 0 0 0 1.791-1.792 1.793 1.793 0 0 0-1.791-1.791Zm0 2.646c-.446 0-.85-.403-.85-.85a.85.85 0 1 1 1.701 0c.005.447-.4.85-.85.85Zm-8.696-2.646c-.989 0-1.792.807-1.792 1.791 0 .989.808 1.792 1.792 1.792s1.791-.808 1.791-1.792-.807-1.791-1.791-1.791Zm0 2.646c-.447 0-.851-.403-.851-.85a.85.85 0 0 1 .85-.851c.447 0 .851.404.851.85 0 .448-.404.852-.85.852Z"/></g><defs><clipPath id="a"><path fill="#fff" d="M0 0h22v22H0z"/></clipPath></defs></svg>