<svg width="18" height="18" fill="none" xmlns="http://www.w3.org/2000/svg"><g clip-path="url(#a)" fill="#222"><path d="M2.05 8.477H.5c-.276 0-.5.234-.5.523 0 .29.224.523.5.523h1.55c.233 1.193 1.243 2.093 2.45 2.093s2.217-.9 2.45-2.093H17.5c.276 0 .5-.234.5-.523a.512.512 0 0 0-.5-.523H6.95C6.717 7.284 5.707 6.384 4.5 6.384s-2.217.9-2.45 2.093ZM6 9c0 .866-.673 1.57-1.5 1.57S3 9.866 3 9c0-.866.673-1.57 1.5-1.57S6 8.134 6 9Zm5.55-6.802H.5c-.276 0-.5.234-.5.523 0 .29.224.523.5.523h11.05c.233 1.193 1.243 2.093 2.45 2.093s2.217-.9 2.45-2.093h1.05c.276 0 .5-.234.5-.523a.512.512 0 0 0-.5-.523h-1.05C16.217 1.005 15.207.105 14 .105s-2.217.9-2.45 2.093Zm3.95.523c0 .866-.673 1.57-1.5 1.57s-1.5-.704-1.5-1.57c0-.866.673-1.57 1.5-1.57s1.5.704 1.5 1.57ZM8.05 14.756H.5c-.276 0-.5.234-.5.523 0 .29.224.523.5.523h7.55c.233 1.193 1.243 2.093 2.45 2.093s2.217-.9 2.45-2.093h4.55c.276 0 .5-.234.5-.523a.512.512 0 0 0-.5-.523h-4.55c-.233-1.193-1.243-2.093-2.45-2.093s-2.217.9-2.45 2.093Zm3.95.523c0 .866-.673 1.57-1.5 1.57S9 16.145 9 15.279c0-.866.673-1.57 1.5-1.57s1.5.704 1.5 1.57Z"/></g><defs><clipPath id="a"><path fill="#fff" transform="rotate(90 9 9)" d="M0 0h18v18H0z"/></clipPath></defs></svg>