<svg width="46" height="50" fill="none" xmlns="http://www.w3.org/2000/svg"><g clip-path="url(#a)" fill="#FF9B04"><path d="M6.315 22.506c.299-2.474.832-4.838 1.59-7.028 2.218-9.617 7.733-12.3 15.166-12.626l.077-.003.077.003c8.425.368 13.107 4.206 15.052 12.499.815 2.317 1.376 4.833 1.675 7.465.69-1.41.949-3.606 1.124-5.101l.014-.123c-.01-1.401-.468-2.017-.953-2.669-.415-.56-.887-1.194-.945-2.173C38.816 6.309 33.608.046 23.122.046c-10.973 0-15.69 6.211-16.07 12.703-.058.987-.55 1.616-.984 2.17-.521.666-1.012 1.294-.92 2.829.141 2.338.636 3.82 1.167 4.758Zm16.709 11.871h-.021c-1.368-.104-3.616-1.153-5.667-2.977v.436s4.299 4.041 5.667 4.144h.03c1.368-.103 5.667-4.144 5.667-4.144V31.4c-2.052 1.824-4.299 2.873-5.667 2.976h-.01Z"/><path d="M44.043 41.587c-.762-.935-4.038-2.737-5.115-3.305-.896-3.16-1.214-6.13-1.505-11.579l.009-.21-.02.016-.006-.12-1.83 1.58c-1.669 1.221-3.421 2.196-5.27 2.679l-.35 4.118c0 5.044-3.105 7.339-6.862 7.339-3.736 0-6.826-2.29-6.835-7.324l-.352-5.243c-.823-1.024-1.543-2.535-2.06-3.838.443-8.455 8.546-7.266 14.046-12.221 4.642 7.585 4.568 11.047 4.508 12.326-2.073 1.283-3.875 1.586-6.484 1.678a1.66 1.66 0 0 0-1.49-.929c-.92 0-1.663.736-1.663 1.643s.744 1.643 1.662 1.643c.057 0 .112-.011.168-.017a1.656 1.656 0 0 0 1.352-.965c5.121-.188 7.682-1.441 11.52-4.928a40.14 40.14 0 0 0-.284-4.728C36.135 10.293 31.257 5.269 23.15 4.916c-8.174.357-13.068 5.35-14.117 14.288-.12.986-.216 2.741-.26 3.639-.355 7.325-.606 11.706-1.666 15.444-2.86 1.505-4.726 2.787-5.139 3.33-.45.602-1.43 3.472-1.972 8.362H46.04"/></g><defs><clipPath id="a"><path fill="#fff" d="M0 0h46v50H0z"/></clipPath></defs></svg>