<svg width="44" height="50" fill="none" xmlns="http://www.w3.org/2000/svg"><g clip-path="url(#a)" fill="#FF9B04"><path d="M24.528 36.848v-4.682c0-2.496 2.045-4.447 4.482-4.447h11.638v-5.15c0-1.95-1.573-3.51-3.539-3.51H3.531c-1.966 0-3.539 1.56-3.539 3.511v23.952c0 1.95 1.573 3.511 3.539 3.511h33.657c1.966 0 3.539-1.56 3.539-3.51v-5.15H29.088c-2.516-.078-4.56-2.029-4.56-4.526Z"/><path d="M42.379 29.202h-13.29a2.892 2.892 0 0 0-2.91 2.887v4.681c0 1.639 1.338 2.887 2.91 2.887h13.369c.865 0 1.573-.702 1.573-1.56v-7.412a1.633 1.633 0 0 0-1.652-1.483Zm-9.987 7.88c-1.416 0-2.595-1.17-2.595-2.574 0-1.405 1.18-2.575 2.595-2.575 1.415 0 2.595 1.17 2.595 2.575-.079 1.404-1.18 2.575-2.595 2.575ZM24.056 1.27 23.27.646c-1.258-.937-2.988-.78-4.01.468L6.125 17.498h4.719L24.056 1.27Zm-6.684 16.229L28.066 4.391 25.55 2.362 13.282 17.5h4.09Zm18.558 0 1.573-2.029c.944-1.248.786-2.965-.472-3.98l-7.549-6.007L19.81 17.5h16.12Z"/></g><defs><clipPath id="a"><path fill="#fff" d="M0 0h44v50H0z"/></clipPath></defs></svg>