<svg width="50" height="50" fill="none" xmlns="http://www.w3.org/2000/svg"><g clip-path="url(#a)" fill="#FF9B04"><path d="M16.93 26.895h1.51V6.11h-2.082v20.848a2.6 2.6 0 0 1 .573-.062Zm17.246 0c.198 0 .396.021.583.063V6.11h-2.083v20.785h1.5ZM32.51 2.532a.897.897 0 0 0 0 1.27.898.898 0 0 0 0 1.268h2.414a.898.898 0 0 0 0-1.269.897.897 0 0 0 0-1.269.897.897 0 0 0 0-1.269.897.897 0 0 0 0-1.269H32.51a.897.897 0 0 0 0 1.27.898.898 0 0 0 0 1.268Zm-16.321 0a.897.897 0 0 0 0 1.269.898.898 0 0 0 0 1.27h2.414a.898.898 0 0 0 0-1.27.897.897 0 0 0 0-1.269.897.897 0 0 0 0-1.269.897.897 0 0 0 0-1.269H16.19a.897.897 0 0 0 0 1.269.897.897 0 0 0 0 1.269Zm32.139 28.601H43.83v2.062h-5.613v-2.062h-1.021v5.749a1.87 1.87 0 0 1 1.874-1.792h3.905c1.042 0 1.885.844 1.885 1.885a1.882 1.882 0 0 1-1.885 1.875H39.07a1.87 1.87 0 0 1-1.874-1.78v10.934c0 .76-.282 1.447-.74 1.978h11.872c.927 0 1.676-.76 1.676-1.676V32.81c0-.927-.75-1.677-1.676-1.677Z"/><path d="M37.185 36.976c0 .031 0 .063.011.094v-.188c-.01.032-.01.063-.01.094Zm1.881.831h3.915a.838.838 0 1 0 0-1.677h-3.915a.838.838 0 1 0 0 1.677ZM13.91 31.133h-2.103v2.062H6.184v-2.062H1.695c-.927 0-1.676.75-1.676 1.677v15.496c0 .916.75 1.676 1.676 1.676H14.65a3.013 3.013 0 0 1-.74-1.978v-16.87Zm-2.957 7.717H7.037a1.88 1.88 0 0 1 0-3.76h3.916c1.041 0 1.885.844 1.885 1.886 0 1.03-.844 1.874-1.885 1.874Z"/><path d="M10.957 36.13H7.042a.838.838 0 1 0 0 1.677h3.915a.838.838 0 1 0 0-1.677Zm23.219-8.194h-4.26v3.479H21.2v-3.479h-4.27a1.984 1.984 0 0 0-1.978 1.98v18.088a1.99 1.99 0 0 0 1.978 1.978h4.27v-3.488h8.716v3.488h4.26a1.984 1.984 0 0 0 1.978-1.978V29.915a1.978 1.978 0 0 0-1.978-1.979Zm-6.31 8.727h-4.614a2.042 2.042 0 0 1-2.041-2.03c0-1.125.916-2.031 2.04-2.031h4.614c1.125 0 2.041.906 2.041 2.03a2.042 2.042 0 0 1-2.04 2.031Z"/><path d="M27.866 33.64h-4.618a.988.988 0 1 0 0 1.979h4.618a.988.988 0 0 0 .994-.985.995.995 0 0 0-.994-.993Zm-5.624-5.708h6.631v2.437h-6.631v-2.437Zm0 19.608h6.631v2.437h-6.631V47.54Z"/></g><defs><clipPath id="a"><path fill="#fff" d="M0 0h50v50H0z"/></clipPath></defs></svg>