<svg width="50" height="39" fill="none" xmlns="http://www.w3.org/2000/svg"><g clip-path="url(#a)" fill="#FF9B04"><path d="M12.71 22.422v4.366c-2.55.762-2.98.452-12.715 1.22v-6.093c3 1.117 9.446.776 12.715.507ZM-.005 29.043v6.972s9.435-1.945 11.54-.269l4.8 2.824c1.482.86 3.19.197 3.822-.704 0 0 1.333.528 2.416-.248.104.01 3.74 1.414 3.999-.186 0 0 4.977-.052 5.102-1.014 0 0 .386-1.252-3.728-1.252l-6.53-4.106s-.416-1.273.428-1.056c0 0 5.77 2.349 6.738.476 0 0 .552-1.024-1.51-1.686-.937-.176-6.467-3.372-13.652-1.128-2.938.911-3.448.632-13.425 1.376ZM12.406 2.076c0-1.143.933-2.07 2.083-2.07h33.41c1.15 0 2.082.927 2.082 2.07v4.599H12.406v-4.6Z"/><path d="M24.864 32.002c1.71.371 3.818.487 4.644-1.045.506-1.005.063-2.45-2.113-3.145-1.968-.888-5.606-1.976-8.477-1.976-.854 0-2.947.073-5.165.663V7.712h34.886v25.075c0 1.324-1.094 2.41-2.427 2.41H32.237c-.656-.692-1.937-1.023-3.988-1.054l-3.385-2.142Zm8.56-1.428c0 .641.52 1.159 1.156 1.159h9.404a1.16 1.16 0 0 0 1.167-1.159v-5.73a1.16 1.16 0 0 0-1.167-1.16H34.58a1.16 1.16 0 0 0-1.156 1.16v5.73Z"/><path d="M43.529 25.83h-8.49v1.155h8.49V25.83Zm0 2.605h-8.49v1.155h8.49v-1.155Z"/></g><defs><clipPath id="a"><path fill="#fff" transform="matrix(-1 0 0 1 50 0)" d="M0 0h50v39H0z"/></clipPath></defs></svg>