<svg width="16" height="16" fill="none" xmlns="http://www.w3.org/2000/svg"><g clip-path="url(#a)"><path d="M.078 6.534A9.209 9.209 0 0 0 0 7.678a9.13 9.13 0 0 0 4.628 7.944l.516-1.088V7.106l-.572-.572H.078ZM16 7.106c0-.572-.572-1.143-1.144-1.143h-4.572c.285-1.144.572-2.285.572-2.857 0-1.143-.572-2.284-.856-2.572C9.994.528 9.716.25 9.144.25c-.857 0-.857.856-.857.856 0 .016-.284 1.428-.284 2 0 .572-1.144 2.857-1.716 3.428l-.571.285v8l.571.284h6.285c1.144 0 1.716-.572 1.716-1.144s-.572-1.143-1.144-1.143c1.143 0 1.715-.572 1.715-1.144s-.572-1.144-1.143-1.144c1.143 0 1.715-.572 1.715-1.144s-.572-1.143-1.143-1.143C15.428 8.25 16 7.678 16 7.106Z" fill="#CCC"/></g><defs><clipPath id="a"><path fill="#fff" d="M0 0h16v16H0z"/></clipPath></defs></svg>