<svg width="15" height="20" fill="none" xmlns="http://www.w3.org/2000/svg"><path d="M13.34 2.143h-2.415a2.205 2.205 0 0 0-.61-1.51A2.042 2.042 0 0 0 8.864 0H6.126c-.547 0-1.072.226-1.458.628a2.187 2.187 0 0 0-.604 1.515H1.66c-2.108 0-2.205 3.214-.312 3.54l.587 12.285a2.18 2.18 0 0 0 .64 1.444A2.02 2.02 0 0 0 3.996 20h7.01a2.02 2.02 0 0 0 1.42-.588 2.18 2.18 0 0 0 .641-1.444l.587-12.286c1.896-.325 1.791-3.54-.312-3.54Zm-7.214-.714h2.739a.684.684 0 0 1 .483.212.738.738 0 0 1 .204.502H5.439a.73.73 0 0 1 .2-.505.674.674 0 0 1 .487-.21ZM1.659 3.57H13.34c.19 0 .344.16.344.358a.35.35 0 0 1-.344.357H1.659a.35.35 0 0 1-.344-.357.35.35 0 0 1 .344-.358Zm10.033 14.324a.728.728 0 0 1-.214.481.674.674 0 0 1-.473.196h-7.01a.673.673 0 0 1-.472-.195.726.726 0 0 1-.215-.48L2.725 5.714h9.551l-.584 12.181Zm-2.13-1.466V7.857a.72.72 0 0 1 .343-.618.665.665 0 0 1 .687 0 .72.72 0 0 1 .344.618v8.572a.72.72 0 0 1-.344.618.665.665 0 0 1-.687 0 .72.72 0 0 1-.344-.618Zm-2.75 0V7.857a.72.72 0 0 1 .344-.618.665.665 0 0 1 .688 0 .72.72 0 0 1 .343.618v8.572a.72.72 0 0 1-.343.618.665.665 0 0 1-.688 0 .72.72 0 0 1-.343-.618Zm-2.748 0V7.857a.72.72 0 0 1 .344-.618.665.665 0 0 1 .687 0 .72.72 0 0 1 .343.618v8.572a.72.72 0 0 1-.343.618.665.665 0 0 1-.687 0 .72.72 0 0 1-.344-.618Z" fill="#BBB"/></svg>