<svg width="22" height="22" fill="none" xmlns="http://www.w3.org/2000/svg"><path d="m20.725 19.89-4.811-4.812a8.409 8.409 0 0 0 2.072-5.536c0-4.658-3.789-8.442-8.442-8.442-4.658 0-8.442 3.789-8.442 8.442 0 4.654 3.789 8.443 8.442 8.443a8.407 8.407 0 0 0 5.535-2.072l4.812 4.811a.596.596 0 0 0 .417.176.594.594 0 0 0 .417-1.01ZM2.283 9.542c0-4.003 3.257-7.257 7.256-7.257 4.004 0 7.257 3.258 7.257 7.257 0 4-3.253 7.262-7.257 7.262-3.999 0-7.256-3.258-7.256-7.262Z" fill="#222" stroke="#222" stroke-width=".2"/></svg>