<svg width="18" height="15" fill="none" xmlns="http://www.w3.org/2000/svg"><path d="M15.152.002a1.84 1.84 0 0 0-.587.143h-.003c-.18.072-1.032.439-2.329.994L7.586 3.136.974 5.979l.039-.015s-.226.076-.462.24a1.29 1.29 0 0 0-.37.365 1.084 1.084 0 0 0-.174.713c.057.464.352.742.563.896.214.155.418.228.418.228h.005l3.074 1.057c.138.451.937 3.132 1.129 3.749.113.369.223.6.361.775.067.09.145.165.239.226a.7.7 0 0 0 .155.068l-.032-.008c.01.003.017.01.024.013.025.007.042.01.074.015.487.15.878-.158.878-.158l.022-.018 1.815-1.687 3.042 2.382.069.03c.634.284 1.276.126 1.615-.153.342-.28.475-.64.475-.64l.022-.058 2.35-12.289c.067-.303.084-.587.01-.862a1.159 1.159 0 0 0-.491-.673 1.16 1.16 0 0 0-.672-.173Zm-.063 1.317c-.003.04.005.036-.013.113v.007l-2.329 12.162c-.01.017-.027.055-.073.093-.05.04-.088.065-.293-.018l-3.72-2.911-2.248 2.09.472-3.077 6.079-5.782c.25-.238.167-.288.167-.288.018-.291-.379-.085-.379-.085L5.088 8.469l-.003-.013-3.674-1.262V7.19l-.01-.002a.166.166 0 0 0 .02-.008l.02-.01.02-.007L8.075 4.32c1.67-.718 3.352-1.44 4.645-1.998a501.92 501.92 0 0 1 2.304-.983c.052-.02.028-.02.065-.02v-.001Z" fill="#222"/></svg>