<svg width="18" height="21" fill="none" xmlns="http://www.w3.org/2000/svg"><g clip-path="url(#a)" fill="#222"><path d="M5.368 4.78a.727.727 0 0 0-.483.097h-.012a3.714 3.714 0 0 0-.901.756c-.216.254-.333.512-.364.76-.018.147-.005.296.037.436l.016.01c.243.728.56 1.429.947 2.088a12.277 12.277 0 0 0 1.827 2.55l.022.031.034.026.02.025.026.022c.753.73 1.594 1.36 2.503 1.874 1.04.578 1.67.85 2.05.965v.005c.11.035.211.05.313.05.323-.024.628-.157.868-.38.292-.264.54-.576.732-.922v-.006c.181-.35.12-.678-.141-.902a10.93 10.93 0 0 0-1.693-1.24c-.403-.223-.813-.088-.978.138l-.354.455c-.182.226-.511.195-.511.195l-.01.006c-2.457-.64-3.113-3.18-3.113-3.18s-.03-.346.197-.523l.443-.364c.212-.176.36-.593.132-1.005A10.846 10.846 0 0 0 5.763 5.02a.67.67 0 0 0-.396-.242l.001.001Zm4.154-1.105a.445.445 0 0 0-.318.135.464.464 0 0 0 0 .65.445.445 0 0 0 .318.134c1.138 0 2.083.38 2.83 1.107a4.081 4.081 0 0 1 1.144 3.008.465.465 0 0 0 .119.33.447.447 0 0 0 .636.028.464.464 0 0 0 .145-.32 5.018 5.018 0 0 0-1.408-3.697l-.01-.009c-.927-.905-2.1-1.366-3.456-1.366Z"/><path d="M9.49 5.185a.445.445 0 0 0-.318.135.464.464 0 0 0 0 .65.445.445 0 0 0 .319.134h.015c.82.06 1.418.34 1.837.798.429.472.651 1.059.634 1.785a.465.465 0 0 0 .125.328.446.446 0 0 0 .636.015.464.464 0 0 0 .14-.322c.02-.953-.28-1.775-.876-2.431v-.002c-.609-.667-1.445-1.02-2.451-1.089l-.015-.001H9.49Z"/><path d="M9.473 6.724a.442.442 0 0 0-.334.111.458.458 0 0 0-.155.323.468.468 0 0 0 .121.337.45.45 0 0 0 .322.146c.376.02.616.136.767.291.152.157.266.407.286.8a.467.467 0 0 0 .144.328.449.449 0 0 0 .33.122.442.442 0 0 0 .316-.158.463.463 0 0 0 .109-.34c-.03-.552-.198-1.04-.545-1.397-.348-.359-.822-.533-1.36-.563Z"/><path fill-rule="evenodd" clip-rule="evenodd" d="M4.56 1.272a19.538 19.538 0 0 1 8.698 0l.305.068a4.612 4.612 0 0 1 2.221 1.226 4.759 4.759 0 0 1 1.264 2.232 18.48 18.48 0 0 1 0 8.912 4.759 4.759 0 0 1-1.264 2.231 4.612 4.612 0 0 1-2.221 1.226l-.306.069c-1.794.41-3.634.563-5.47.458L5.4 19.875a.67.67 0 0 1-.674.137.675.675 0 0 1-.293-.206.695.695 0 0 1-.149-.33l-.395-2.41a4.627 4.627 0 0 1-1.988-1.263A4.765 4.765 0 0 1 .77 13.71a18.481 18.481 0 0 1 0-8.912 4.76 4.76 0 0 1 1.263-2.232A4.612 4.612 0 0 1 4.255 1.34l.305-.068Zm8.404 1.344a18.2 18.2 0 0 0-8.11 0l-.305.07a3.27 3.27 0 0 0-1.575.869c-.436.432-.745.98-.895 1.582a17.075 17.075 0 0 0 0 8.234c.15.601.46 1.149.896 1.582a3.27 3.27 0 0 0 1.575.869l.08.018a.691.691 0 0 1 .519.559l.265 1.615 1.684-1.539a.673.673 0 0 1 .498-.175c1.8.13 3.607-.007 5.368-.408l.305-.07a3.269 3.269 0 0 0 1.575-.87c.436-.432.746-.98.895-1.581a17.081 17.081 0 0 0 0-8.234 3.374 3.374 0 0 0-.896-1.582 3.27 3.27 0 0 0-1.574-.87l-.305-.07Z"/></g><defs><clipPath id="a"><path fill="#fff" d="M0 0h18v21H0z"/></clipPath></defs></svg>