<svg width="17" height="18" fill="none" xmlns="http://www.w3.org/2000/svg"><path d="M14.523 2.474A8.422 8.422 0 0 0 8.535 0C3.87 0 .067 3.782.067 8.423c0 1.487.393 2.932 1.128 4.207L0 17l4.485-1.173a8.502 8.502 0 0 0 4.05 1.028c4.663 0 8.465-3.782 8.465-8.423a8.35 8.35 0 0 0-2.477-5.958ZM8.534 15.428a7.085 7.085 0 0 1-3.588-.978l-.256-.153-2.665.697.709-2.584-.171-.264a6.999 6.999 0 0 1-1.077-3.722c0-3.86 3.161-7.004 7.04-7.004a6.98 6.98 0 0 1 4.972 2.057 6.954 6.954 0 0 1 2.058 4.955c.017 3.859-3.143 6.995-7.022 6.995Zm3.861-5.237c-.213-.102-1.255-.611-1.443-.688-.197-.068-.333-.102-.479.102-.145.213-.546.688-.666.825-.12.144-.248.161-.461.05-.214-.101-.897-.331-1.7-1.045-.632-.561-1.051-1.25-1.18-1.462-.119-.212-.016-.323.095-.433.094-.094.213-.247.316-.366.102-.119.145-.212.213-.348.069-.145.035-.264-.017-.366a69.764 69.764 0 0 1-.649-1.564c-.17-.408-.35-.357-.478-.365h-.41a.77.77 0 0 0-.564.263c-.188.213-.735.723-.735 1.76s.76 2.04.863 2.176c.103.144 1.495 2.269 3.614 3.178.504.222.897.349 1.204.443.504.161.965.135 1.333.084.41-.059 1.256-.51 1.426-1.003.18-.492.18-.909.12-1.002-.06-.094-.188-.136-.402-.239Z" fill="#222"/></svg>