<svg width="10" height="5" viewBox="0 0 10 5" fill="none" xmlns="http://www.w3.org/2000/svg">
<g clip-path="url(#clip0_47_771)">
<path d="M0.45 0.479164C0.575 0.374997 0.723 0.322914 0.894 0.322914C1.065 0.322914 1.21283 0.374997 1.3375 0.479164L5 3.53125L8.675 0.468747C8.79167 0.371525 8.9375 0.322914 9.1125 0.322914C9.2875 0.322914 9.4375 0.374997 9.5625 0.479164C9.6875 0.583331 9.75 0.706664 9.75 0.849164C9.75 0.991664 9.6875 1.11486 9.5625 1.21875L5.35 4.71875C5.3 4.76041 5.24583 4.79 5.1875 4.8075C5.12917 4.825 5.06667 4.83361 5 4.83333C4.93333 4.83333 4.87083 4.82458 4.8125 4.80708C4.75417 4.78958 4.7 4.76014 4.65 4.71875L0.4375 1.20833C0.320833 1.11111 0.2625 0.991247 0.2625 0.848747C0.2625 0.706247 0.325 0.583053 0.45 0.479164Z" fill="#777777"/>
</g>
<defs>
<clipPath id="clip0_47_771">
<rect width="5" height="10" fill="white" transform="translate(10) rotate(90)"/>
</clipPath>
</defs>
</svg>
