<svg width="18" height="21" viewBox="0 0 18 21" fill="none" xmlns="http://www.w3.org/2000/svg">
<g clip-path="url(#clip0_641_1646)">
<path d="M5.36846 4.77934C5.20119 4.75448 5.03063 4.78885 4.88516 4.87673H4.87256C4.53506 5.07885 4.23086 5.33334 3.97166 5.63286C3.75566 5.88735 3.63866 6.1446 3.60806 6.39266C3.59006 6.53966 3.60266 6.6885 3.64496 6.82907L3.66116 6.83826C3.90416 7.56682 4.22096 8.26783 4.60796 8.92749C5.10697 9.85404 5.72104 10.711 6.43496 11.477L6.45656 11.5083L6.49076 11.534L6.51146 11.5588L6.53666 11.5808C7.28972 12.3118 8.13112 12.9417 9.04046 13.4551C10.08 14.033 10.7109 14.3059 11.0898 14.4198V14.4253C11.2005 14.4602 11.3013 14.4758 11.403 14.4758C11.7257 14.4515 12.0311 14.3176 12.2706 14.0955C12.5631 13.8309 12.8106 13.5194 13.0032 13.173V13.1666C13.1841 12.8175 13.1229 12.4886 12.8619 12.2653C12.3376 11.7977 11.7707 11.3824 11.169 11.025C10.7658 10.8017 10.3563 10.9368 10.1907 11.1628L9.83696 11.6185C9.65516 11.8445 9.32576 11.8133 9.32576 11.8133L9.31676 11.8188C6.85886 11.1784 6.20276 8.63809 6.20276 8.63809C6.20276 8.63809 6.17216 8.29264 6.39986 8.11624L6.84266 7.75241C7.05506 7.57601 7.20266 7.1589 6.97496 6.7473C6.62721 6.13244 6.22116 5.55391 5.76266 5.02005C5.66266 4.89441 5.52242 4.80883 5.36666 4.77842L5.36846 4.77934ZM9.52196 3.675C9.40261 3.675 9.28815 3.7234 9.20376 3.80955C9.11937 3.8957 9.07196 4.01254 9.07196 4.13438C9.07196 4.25621 9.11937 4.37305 9.20376 4.4592C9.28815 4.54535 9.40261 4.59375 9.52196 4.59375C10.6596 4.59375 11.6046 4.97319 12.3525 5.70084C12.7368 6.09866 13.0365 6.56998 13.2327 7.08632C13.4298 7.60358 13.5198 8.15574 13.4964 8.70883C13.4913 8.83067 13.534 8.94954 13.6148 9.03931C13.6956 9.12908 13.8081 9.18238 13.9275 9.1875C14.0468 9.19262 14.1633 9.14913 14.2512 9.06659C14.3391 8.98406 14.3913 8.86925 14.3964 8.74742C14.4243 8.06707 14.3136 7.38821 14.0715 6.75373C13.8282 6.11624 13.4594 5.5365 12.9879 5.05037L12.9789 5.04118C12.051 4.13621 10.8774 3.675 9.52196 3.675Z" fill="#222222"/>
<path d="M9.49053 5.18542C9.37118 5.18542 9.25672 5.23382 9.17233 5.31997C9.08794 5.40612 9.04053 5.52297 9.04053 5.6448C9.04053 5.76663 9.08794 5.88348 9.17233 5.96963C9.25672 6.05578 9.37118 6.10417 9.49053 6.10417H9.50583C10.3266 6.16389 10.9242 6.44319 11.3427 6.90165C11.772 7.37389 11.9943 7.96097 11.9772 8.68678C11.9745 8.80861 12.0193 8.92657 12.1017 9.0147C12.1842 9.10283 12.2975 9.15392 12.4169 9.15672C12.5362 9.15952 12.6518 9.11381 12.7381 9.02964C12.8244 8.94548 12.8745 8.82974 12.8772 8.70791C12.8988 7.75517 12.5982 6.93289 12.0024 6.2769V6.27506C11.3931 5.60805 10.557 5.25525 9.55083 5.18634L9.53553 5.18451L9.49053 5.18542Z" fill="#222222"/>
<path d="M9.47341 6.72433C9.41319 6.71891 9.35251 6.72593 9.295 6.74497C9.2375 6.76401 9.18434 6.79469 9.1387 6.83517C9.09307 6.87565 9.05589 6.9251 9.02939 6.98057C9.00289 7.03604 8.98761 7.09639 8.98447 7.15803C8.98132 7.21966 8.99037 7.28131 9.01108 7.33929C9.03179 7.39727 9.06373 7.4504 9.105 7.4955C9.14627 7.5406 9.19601 7.57675 9.25127 7.60179C9.30653 7.62683 9.36616 7.64025 9.42661 7.64124C9.80281 7.66146 10.0431 7.77722 10.1943 7.93249C10.3464 8.08867 10.4598 8.33949 10.4805 8.7318C10.4816 8.79345 10.4949 8.85423 10.5195 8.91054C10.5441 8.96684 10.5796 9.0175 10.6238 9.05951C10.668 9.10152 10.7201 9.13401 10.7769 9.15506C10.8336 9.1761 10.894 9.18526 10.9543 9.18199C11.0146 9.17872 11.0737 9.16308 11.1279 9.13602C11.1822 9.10896 11.2306 9.07102 11.2702 9.02447C11.3098 8.97792 11.3398 8.9237 11.3585 8.86505C11.3771 8.80641 11.384 8.74453 11.3787 8.68311C11.3499 8.13186 11.1807 7.64492 10.8342 7.28661C10.4859 6.92829 10.0116 6.75373 9.47341 6.72433Z" fill="#222222"/>
<path fill-rule="evenodd" clip-rule="evenodd" d="M4.56035 1.27155C7.42421 0.618047 10.3941 0.618047 13.258 1.27155L13.563 1.34046C14.4002 1.53151 15.1691 1.95577 15.7843 2.56609C16.3995 3.17641 16.8369 3.9489 17.0478 4.79771C17.7748 7.72199 17.7748 10.7853 17.0478 13.7096C16.8369 14.5584 16.3995 15.3309 15.7843 15.9412C15.1691 16.5515 14.4002 16.9758 13.563 17.1668L13.257 17.2357C11.4634 17.6452 9.62284 17.7995 7.78775 17.6942L5.40005 19.8753C5.31003 19.9576 5.20003 20.0137 5.08153 20.0378C4.96302 20.0618 4.84036 20.053 4.72635 20.0122C4.61234 19.9713 4.51115 19.9 4.43335 19.8056C4.35555 19.7113 4.30399 19.5973 4.28405 19.4757L3.88895 17.0667C3.13131 16.826 2.4468 16.3911 1.90082 15.8033C1.35485 15.2156 0.965656 14.4947 0.770449 13.7096C0.0434768 10.7853 0.0434768 7.72199 0.770449 4.79771C0.981426 3.9489 1.41881 3.17641 2.03399 2.56609C2.64917 1.95577 3.41807 1.53151 4.25525 1.34046L4.56035 1.27155ZM12.9636 2.61568C10.2936 2.00637 7.5247 2.00637 4.85465 2.61568L4.54865 2.68551C3.9553 2.82117 3.41039 3.12206 2.97444 3.55476C2.53848 3.98747 2.22855 4.53507 2.07905 5.13673C1.40739 7.83852 1.40739 10.6688 2.07905 13.3706C2.22862 13.9724 2.53869 14.52 2.97481 14.9527C3.41093 15.3855 3.95603 15.6863 4.54955 15.8218L4.63055 15.8402C4.76158 15.8701 4.8809 15.9392 4.97324 16.0387C5.06559 16.1382 5.12676 16.2636 5.14895 16.3988L5.41355 18.0139L7.09835 16.475C7.16563 16.4134 7.24435 16.3662 7.32985 16.3362C7.41534 16.3062 7.50587 16.2941 7.59605 16.3005C9.3952 16.4308 11.2034 16.293 12.9636 15.8916L13.2687 15.8218C13.8623 15.6863 14.4074 15.3855 14.8435 14.9527C15.2796 14.52 15.5897 13.9724 15.7392 13.3706C16.4106 10.6694 16.4106 7.83877 15.7392 5.13673C15.5897 4.53495 15.2796 3.98728 14.8435 3.55456C14.4074 3.12184 13.8623 2.82101 13.2687 2.68551L12.9636 2.61568Z" fill="#222222"/>
</g>
<defs>
<clipPath id="clip0_641_1646">
<rect width="18" height="21" fill="white"/>
</clipPath>
</defs>
</svg>
