<svg width="220" height="84" fill="none" xmlns="http://www.w3.org/2000/svg"><g clip-path="url(#a)"><path d="M6.718 37.498h5.133v5.088a3.487 3.487 0 0 1-1.38 2.976c-.925.693-2.287 1.04-4.087 1.04-1.803 0-3.161-.349-4.085-1.04a3.476 3.476 0 0 1-1.386-2.976V34.29c-.03-.57.08-1.14.321-1.658A3.51 3.51 0 0 1 2.3 31.315c.924-.692 2.282-1.035 4.085-1.035 1.804 0 3.162.343 4.086 1.035a3.498 3.498 0 0 1 1.38 2.976v1.548H8.383v-1.737a1.358 1.358 0 0 0-.518-1.217 2.383 2.383 0 0 0-1.38-.353 2.406 2.406 0 0 0-1.386.353 1.367 1.367 0 0 0-.518 1.217v8.617a1.336 1.336 0 0 0 .518 1.211c.418.247.9.367 1.386.343.484.023.964-.096 1.38-.343a1.345 1.345 0 0 0 .518-1.211v-2.937h-1.67l.005-2.284Zm15.174 8.893a11.464 11.464 0 0 0-.134-.298 1.656 1.656 0 0 1-.116-.343 2.845 2.845 0 0 1-.067-.52v-3.307a1.896 1.896 0 0 0-.557-1.571 2.931 2.931 0 0 0-1.831-.46H17.89v6.5h-3.668V30.418h5.533c1.914 0 3.299.304 4.152.912a3.135 3.135 0 0 1 1.286 2.765v1.256a3.116 3.116 0 0 1-.596 2.047 3.151 3.151 0 0 1-1.775 1.194 3.04 3.04 0 0 1 1.914 1.267c.362.65.54 1.386.518 2.129v2.467c-.003.345.02.691.067 1.034.052.319.165.625.334.901h-3.763ZM17.89 32.714v4.895h1.43a3.05 3.05 0 0 0 1.62-.365 1.44 1.44 0 0 0 .585-1.295v-1.592a1.567 1.567 0 0 0-.451-1.256 2.142 2.142 0 0 0-1.42-.387H17.89Zm21.63 13.677h-3.724l-.634-2.898h-4.498l-.606 2.898h-3.396l3.735-15.972h5.366L39.52 46.39Zm-8.35-5.06h3.541l-1.814-8.07-1.726 8.07Zm13.299-6.488v11.56H41.19V30.418h4.604l3.745 9.568v-9.568h3.268V46.39h-3.768l-4.57-11.548Zm10.971-4.424h5.789c1.855 0 3.228.333 4.119 1 .45.344.808.792 1.043 1.305.235.513.34 1.076.304 1.638v8.086a3.425 3.425 0 0 1-.305 1.638c-.235.513-.593.96-1.042 1.304-.902.664-2.277 1.001-4.12 1.001H55.44V30.42Zm3.668 2.278v11.416h2.07c.48.026.955-.094 1.364-.343a1.362 1.362 0 0 0 .501-1.211V34.29a1.353 1.353 0 0 0-.5-1.206 2.333 2.333 0 0 0-1.364-.342l-2.071-.045Zm9.942-2.278h3.667v13.694h6.034v2.278H69.05V30.42Zm15.04 6.741h5.037v2.28h-5.038v4.673h6.335v2.278h-10.02V30.42h10.02v2.278h-6.335v4.464Zm8.137-2.87a3.531 3.531 0 0 1 1.347-2.975c.902-.69 2.252-1.035 4.052-1.035 1.8 0 3.151.345 4.052 1.035a3.519 3.519 0 0 1 1.353 2.976v.613h-3.468v-.774a1.402 1.402 0 0 0-.484-1.217 2.747 2.747 0 0 0-2.7 0 1.41 1.41 0 0 0-.484 1.217c0 .534.199 1.05.557 1.449.39.45.836.849 1.33 1.183.557.377 1.113.747 1.72 1.107.601.365 1.174.773 1.714 1.222.523.428.974.935 1.336 1.504a3.62 3.62 0 0 1 .557 1.98 3.477 3.477 0 0 1-1.386 2.976c-.917.693-2.278 1.04-4.086 1.04-1.807 0-3.182-.353-4.124-1.057a3.51 3.51 0 0 1-1.058-1.304 3.487 3.487 0 0 1-.328-1.644V41.48h3.468v1.25a1.336 1.336 0 0 0 .517 1.211 2.96 2.96 0 0 0 2.783 0 1.346 1.346 0 0 0 .518-1.211 2.15 2.15 0 0 0-.557-1.444 7.055 7.055 0 0 0-1.335-1.189c-.557-.37-1.114-.74-1.715-1.106a14.937 14.937 0 0 1-1.72-1.216 6.307 6.307 0 0 1-1.33-1.505 3.633 3.633 0 0 1-.529-1.98Zm20.706 7.472 2.505-11.343h5.099V46.39h-3.468V34.948l-2.533 11.443h-3.467l-2.733-11.282V46.39h-3.206V30.42h5.081l2.722 11.343Zm22.148 4.629h-3.718l-.634-2.898h-4.487l-.634 2.898h-3.34l3.707-15.972h5.388l3.718 15.972Zm-8.349-5.06h3.518l-1.77-8.07-1.748 8.07Zm17.717 5.06a11.837 11.837 0 0 0-.133-.298 1.605 1.605 0 0 1-.117-.343 2.845 2.845 0 0 1-.067-.52v-3.307a1.91 1.91 0 0 0-.556-1.571 2.938 2.938 0 0 0-1.837-.46h-1.269v6.5h-3.669V30.418h5.567c1.911 0 3.295.304 4.152.912a3.148 3.148 0 0 1 1.28 2.766v1.255a3.114 3.114 0 0 1-.606 2.052 3.149 3.149 0 0 1-1.793 1.184 3.04 3.04 0 0 1 1.921 1.266c.359.652.537 1.387.517 2.13v2.466a7.15 7.15 0 0 0 .062 1.034c.052.32.165.625.334.902l-3.786.005Zm-4.002-13.677v4.895h1.436a3.05 3.05 0 0 0 1.62-.365 1.449 1.449 0 0 0 .585-1.294v-1.593a1.576 1.576 0 0 0-.451-1.256 2.143 2.143 0 0 0-1.42-.387h-1.77Zm14.545 7.317-1.113 1.46v4.9h-3.668V30.42h3.668v6.968l4.848-6.968h3.601l-5.104 7.112 5.104 8.85h-3.768l-3.568-6.35Zm12.669-2.871h5.037v2.28h-5.037v4.673h6.34v2.278h-10.02V30.42h10.02v2.278h-6.34v4.464Zm7.603-6.741h11.339v2.278h-3.83v13.694h-3.674V32.714h-3.835v-2.295Zm16.543 13.555v2.417h-3.535v-2.417h3.535Zm10.336 2.417-.133-.298a2.072 2.072 0 0 1-.178-.863v-3.307a1.913 1.913 0 0 0-.557-1.571 2.936 2.936 0 0 0-1.837-.46h-1.28v6.5h-3.668V30.418h5.538c1.911 0 3.295.304 4.153.912.432.316.776.735 1.001 1.218.225.484.323 1.016.284 1.548v1.255c.046.734-.17 1.46-.61 2.052a3.15 3.15 0 0 1-1.794 1.184c.783.155 1.472.61 1.92 1.266.362.65.541 1.386.518 2.13v2.466a6.28 6.28 0 0 0 .067 1.034c.05.319.161.625.328.902l-3.752.005Zm-3.985-13.677v4.895h1.436a3.05 3.05 0 0 0 1.62-.365 1.445 1.445 0 0 0 .568-1.295v-1.592a1.576 1.576 0 0 0-.451-1.256 2.143 2.143 0 0 0-1.42-.387h-1.753Zm13.225-2.295V42.74a1.338 1.338 0 0 0 .518 1.211 2.96 2.96 0 0 0 2.783 0 1.335 1.335 0 0 0 .518-1.21V30.418h3.468v12.167a3.502 3.502 0 0 1-1.381 2.97c-.924.697-2.288 1.04-4.085 1.04-1.798 0-3.168-.343-4.086-1.04a3.49 3.49 0 0 1-1.403-2.97V30.42h3.668Z" fill="#FF9B04"/><path d="M35.067 54.317h-1.28V49.46h3.991v4.856h-1.291v-4.165h-1.42v4.165Zm7.236 0H40.99V49.46h1.113v2.904l1.314-2.904h1.586v4.856H43.89v-3.518l-1.587 3.518Zm9.463-4.165h-1.47v2.942a1.018 1.018 0 0 1-.556.98 1.99 1.99 0 0 1-.557.188 3.907 3.907 0 0 1-.684.055h-.612v-.67h.44c.174.006.348-.024.511-.088a.367.367 0 0 0 .212-.376v-3.722h3.996v4.856h-1.28v-4.165Zm4.364.47a1.008 1.008 0 0 1 .495-.901 3.358 3.358 0 0 1 2.85 0 1.015 1.015 0 0 1 .496.901v2.528a1.012 1.012 0 0 1-.496.907 3.358 3.358 0 0 1-2.85 0 1.021 1.021 0 0 1-.495-.907v-2.528Zm1.264 2.578a.407.407 0 0 0 .178.37 1.12 1.12 0 0 0 .957 0 .41.41 0 0 0 .178-.37v-2.622a.407.407 0 0 0-.178-.376 1.119 1.119 0 0 0-.957 0 .41.41 0 0 0-.178.376V53.2Zm8.366-.293.857-3.446h1.759v4.856h-1.192v-3.484l-.873 3.484h-1.186l-.952-3.435v3.435H63.06V49.46h1.753l.947 3.446Zm9.94 1.41h-1.274l-.222-.885h-1.548l-.217.885h-1.191l1.286-4.856h1.848l1.319 4.856Zm-2.883-1.543h1.214l-.635-2.445-.579 2.445ZM78.2 49.46h3.897v.692h-1.32v4.165h-1.263v-4.165h-1.32l.006-.691Zm8.038 2.047h1.736v.692h-1.736v1.449h2.182v.696h-3.446v-4.883h3.446v.691h-2.182v1.355Zm7.085-2.047c.493-.035.986.07 1.42.305a1.009 1.009 0 0 1 .468.896v.63a1.002 1.002 0 0 1-.468.897 2.647 2.647 0 0 1-1.42.304h-.595v1.825h-1.264V49.46h1.86Zm-.595.692v1.66h.596a.945.945 0 0 0 .462-.095.394.394 0 0 0 .161-.36v-.746a.38.38 0 0 0-.162-.36.879.879 0 0 0-.462-.099h-.595Zm6.652 4.165h-1.297V49.46h1.113v2.904l1.297-2.904h1.586v4.856h-1.113v-3.518l-1.586 3.518Zm10.008 0h-1.281l-.217-.885h-1.547l-.223.885h-1.157l1.285-4.856h1.848l1.292 4.856Zm-2.889-1.543h1.219l-.607-2.445-.612 2.445Zm9.307-2.622h-1.47v2.943a1.027 1.027 0 0 1-.557.979c-.175.09-.362.153-.556.188a3.983 3.983 0 0 1-.685.055h-.612v-.67h.44a1.28 1.28 0 0 0 .512-.088.364.364 0 0 0 .211-.376v-3.722h3.997v4.856h-1.264l-.016-4.165Zm4.48 4.165V49.46h1.264v1.82h.595a2.62 2.62 0 0 1 1.42.31.99.99 0 0 1 .467.89v.613a.978.978 0 0 1-.467.891 2.62 2.62 0 0 1-1.42.31l-1.859.022Zm1.859-.67a.955.955 0 0 0 .462-.093.395.395 0 0 0 .162-.365v-.753a.38.38 0 0 0-.162-.36.893.893 0 0 0-.462-.099h-.595v1.66l.595.01Zm2.505-4.158h1.264v4.855h-1.264V49.49Zm10.465-.029a2.8 2.8 0 0 1 1.43.277.923.923 0 0 1 .446.841v.171a.952.952 0 0 1-.201.62 1.15 1.15 0 0 1-.618.36c.28.042.536.177.73.381.143.19.217.421.211.658v.393a.937.937 0 0 1-.484.857 2.75 2.75 0 0 1-1.431.299h-1.987V49.46h1.904Zm-.64.692v1.283h.49c.191.01.383-.029.556-.11a.432.432 0 0 0 .162-.173.43.43 0 0 0 .044-.231v-.271a.466.466 0 0 0-.156-.382.828.828 0 0 0-.49-.116h-.606Zm0 1.975v1.52h.723a.905.905 0 0 0 .485-.105.4.4 0 0 0 .167-.37v-.426a.512.512 0 0 0-.19-.465 1.174 1.174 0 0 0-.623-.127l-.562-.027Zm12.474.78.857-3.446h1.759v4.856h-1.191v-3.484l-.869 3.484h-1.224l-.941-3.435v3.435h-1.113V49.46h1.753l.969 3.446Zm5.694-2.285a1.007 1.007 0 0 1 .495-.901 3.361 3.361 0 0 1 2.85 0 1.007 1.007 0 0 1 .496.902v2.527a1.017 1.017 0 0 1-.496.907 3.355 3.355 0 0 1-2.85 0 1.023 1.023 0 0 1-.495-.907v-2.528Zm1.263 2.578a.419.419 0 0 0 .039.209c.032.065.08.12.14.161a1.117 1.117 0 0 0 .957 0 .406.406 0 0 0 .178-.37v-2.622a.408.408 0 0 0-.178-.376 1.12 1.12 0 0 0-.957 0 .407.407 0 0 0-.179.376V53.2Zm9.329-.697v.647a1.022 1.022 0 0 1-.478.907 3.295 3.295 0 0 1-2.783 0 1.028 1.028 0 0 1-.479-.907v-2.528a1.014 1.014 0 0 1 .479-.901 3.287 3.287 0 0 1 2.783 0c.152.095.277.229.361.387.084.158.125.336.117.514v.476h-1.196v-.52a.4.4 0 0 0-.178-.376 1.122 1.122 0 0 0-.952 0 .407.407 0 0 0-.178.376V53.2a.381.381 0 0 0 .038.207.386.386 0 0 0 .14.158 1.119 1.119 0 0 0 .952 0 .383.383 0 0 0 .178-.365v-.697h1.196Zm4.754-.122-.39.443v1.493h-1.263V49.46h1.263v2.113l1.67-2.113h1.242l-1.754 2.162 1.754 2.694h-1.297l-1.225-1.936Zm7.309-2.921c.493-.035.986.06 1.43.277a.93.93 0 0 1 .44.841v.171a.948.948 0 0 1-.195.62 1.154 1.154 0 0 1-.618.36c.279.042.536.177.729.381.143.19.218.421.212.658v.393a.941.941 0 0 1-.484.857c-.444.226-.94.329-1.437.299h-1.987V49.46h1.91Zm-.646.692v1.283h.495c.192.01.383-.029.557-.11a.421.421 0 0 0 .2-.404v-.271a.446.446 0 0 0-.156-.382.798.798 0 0 0-.484-.116h-.612Zm0 1.975v1.52h.723c.17.012.34-.024.49-.105a.401.401 0 0 0 .167-.37v-.426a.511.511 0 0 0-.189-.465 1.189 1.189 0 0 0-.629-.127l-.562-.027Zm6.952-.62h1.731v.692h-1.731v1.449h2.182v.696h-3.44v-4.883h3.446v.691h-2.182l-.006 1.355ZM76.73 21.133l3.847-8.722.623.182c.056.144.1.293.167.432.379.746.768 1.487 1.152 2.212.763-.741 2.021-1.383 2.2-2.245.829-3.938 2.114-5.852 6.122-8.086a2.913 2.913 0 0 0 0 .497c.145.874.306 1.737.456 2.605.952-.597 2.333-.973 2.784-1.83a9.917 9.917 0 0 1 3.35-3.688 10.002 10.002 0 0 1 4.732-1.605c-.034.127-.073.249-.095.37-.139.841-.273 1.66-.406 2.517 1.057-.183 2.61 0 3.106-.62C107.3-.066 110.818.222 114.364 0c-.028.22-.078.437-.15.647-.39.791-.796 1.565-1.219 2.367 1.074.116 2.493.736 3.167.277 3.429-2.356 6.629-.857 10.604.138-.361.114-.706.27-1.03.465-.59.586-1.152 1.194-1.726 1.797.969.454 2.088 1.471 2.878 1.261 3.952-1.062 6.618 1.106 9.685 3.202a5.63 5.63 0 0 0-.762.244c-.73.392-1.459.802-2.182 1.205.762.747 1.514 2.124 2.293 2.14 4.269.078 6.034 3.197 8.349 6.085-2.783-.47-2.783-.47-3.44 1.106h78.974c.078.807.128 1.377.195 2.057a13.16 13.16 0 0 1-1.442.172h-80.326a2.924 2.924 0 0 1-1.605-.317 2.898 2.898 0 0 1-1.178-1.127 30.643 30.643 0 0 0-11.049-9.964 30.861 30.861 0 0 0-14.472-3.612 30.861 30.861 0 0 0-14.476 3.593 30.635 30.635 0 0 0-11.062 9.95c-.64.99-1.247 1.543-2.51 1.543-26.778-.037-53.555-.037-80.333 0H.061v-2.096h76.67ZM.056 63.077v-2.24h81.2a3.631 3.631 0 0 1 1.952.407c.6.315 1.098.791 1.438 1.374a30.668 30.668 0 0 0 11.093 9.762 30.888 30.888 0 0 0 14.402 3.468 30.884 30.884 0 0 0 14.36-3.63 30.663 30.663 0 0 0 10.981-9.887c.557-.84 1.036-1.499 2.31-1.494 27.041.048 54.084.06 81.128.034.262 0 .518.05.919.083.044.597.089 1.161.15 1.996h-76.881l-3.729 8.645-.613-.16c-.066-.133-.133-.272-.206-.404l-1.185-2.213c-.774.741-2.227 1.477-2.227 2.213-.039 4.258-3.167 6.028-6.123 8.296v-.753c-.105-.835-.217-1.659-.322-2.51-.991.525-2.444.807-2.895 1.626-1.714 3.13-3.963 4.861-8.06 5.53.034-.188.067-.343.089-.503.1-.835.195-1.66.295-2.511-1.063.221-2.594.083-3.111.736-2.555 3.202-6.023 2.898-9.663 3.102.211-.398.289-.553.373-.713l1.157-2.213c-1.068-.165-2.51-.851-3.139-.403-3.418 2.406-6.68.962-10.07.038a3.27 3.27 0 0 1 .352-.553c.6-.591 1.213-1.167 1.82-1.747-.947-.493-2.065-1.588-2.784-1.377-3.963 1.139-6.651-1.046-9.696-3.098l.596-.31 2.27-1.106c-.734-.774-1.469-2.212-2.226-2.212-4.297 0-6.04-3.18-8.45-6.034 1.353-.144 2.84 1.018 3.624-1.161l-79.13-.078Z" fill="#2B1A01"/><path d="M219.866 26.464h-81.645a2.757 2.757 0 0 1-1.647-.342 2.728 2.728 0 0 1-1.136-1.234c-5.65-9.623-14.094-14.872-25.343-14.933-11.25-.06-19.755 5.088-25.46 14.684a3.238 3.238 0 0 1-1.343 1.436 3.267 3.267 0 0 1-1.93.4 37541.12 37541.12 0 0 0-78.918-.027c-.802 0-1.61-.094-2.416-.144v-.614c.785-.072 1.57-.21 2.354-.21 26.106 0 52.212.016 78.317.05 1.748 0 2.689-.47 3.618-2.02 11.6-19.323 39.832-19.235 51.393.145a3.328 3.328 0 0 0 1.354 1.448 3.356 3.356 0 0 0 1.942.427c26.172-.056 52.343-.072 78.511-.05.802 0 1.604.11 2.411.166l-.062.818Zm0 32.062h-2.532c-26.106 0-52.21-.019-78.312-.056-1.592 0-2.493.443-3.339 1.848-11.478 19.462-39.921 19.484-51.494.038-.823-1.377-1.67-1.891-3.29-1.886-26.172.056-52.344.072-78.517.05-.796 0-1.592-.127-2.388-.193v-.598a16.68 16.68 0 0 1 1.798-.177h80.12a2.462 2.462 0 0 1 1.474.33c.443.261.793.655.998 1.125 5.639 9.734 14.11 15.016 25.46 15.054 11.439.04 19.955-5.27 25.649-15.054a2.468 2.468 0 0 1 1.004-1.146c.448-.267.97-.387 1.49-.342 26.718.033 53.425.033 80.121 0 .605.027 1.209.084 1.809.172l-.051.835Z" fill="#2B1A01"/></g><defs><clipPath id="a"><path fill="#fff" d="M0 0h220v84H0z"/></clipPath></defs></svg>