<svg width="18" height="18" viewBox="0 0 18 18" fill="none" xmlns="http://www.w3.org/2000/svg">
<g clip-path="url(#clip0_115_1224)">
<path d="M2.0504 8.47681L0.500002 8.47681C0.223802 8.47681 2.31226e-06 8.71102 2.29963e-06 9.00007C2.28699e-06 9.28911 0.223802 9.52332 0.500002 9.52332L2.0504 9.52332C2.2828 10.7159 3.2926 11.6163 4.5 11.6163C5.7074 11.6163 6.7172 10.7159 6.9496 9.52332L17.5 9.52332C17.7762 9.52332 18 9.28912 18 9.00007C18 8.71102 17.7762 8.47681 17.5 8.47681L6.9496 8.47681C6.7172 7.28421 5.7074 6.38379 4.5 6.38379C3.2926 6.38379 2.2828 7.28421 2.0504 8.47681ZM6 9.00007C6 9.86574 5.3272 10.5698 4.5 10.5698C3.6728 10.5698 3 9.86574 3 9.00007C3 8.13439 3.6728 7.4303 4.5 7.4303C5.3272 7.4303 6 8.13439 6 9.00007Z" fill="#222222"/>
<path d="M11.5504 2.19776L0.5 2.19776C0.2238 2.19776 -3.69947e-07 2.43197 -3.82582e-07 2.72101C-3.95217e-07 3.01006 0.2238 3.24427 0.5 3.24427L11.5504 3.24427C11.7828 4.43688 12.7926 5.33729 14 5.33729C15.2074 5.33729 16.2172 4.43688 16.4496 3.24427L17.5 3.24427C17.7762 3.24427 18 3.01006 18 2.72102C18 2.43197 17.7762 2.19776 17.5 2.19776L16.4496 2.19776C16.2172 1.00515 15.2074 0.104736 14 0.104736C12.7926 0.104736 11.7828 1.00515 11.5504 2.19776ZM15.5 2.72102C15.5 3.58669 14.8272 4.29078 14 4.29078C13.1728 4.29078 12.5 3.58669 12.5 2.72101C12.5 1.85534 13.1728 1.15125 14 1.15125C14.8272 1.15125 15.5 1.85534 15.5 2.72102Z" fill="#222222"/>
<path d="M8.0504 14.7559L0.500002 14.7559C0.223802 14.7559 2.31226e-06 14.9901 2.29963e-06 15.2791C2.28699e-06 15.5682 0.223802 15.8024 0.500002 15.8024L8.0504 15.8024C8.2828 16.995 9.2926 17.8954 10.5 17.8954C11.7074 17.8954 12.7172 16.995 12.9496 15.8024L17.5 15.8024C17.7762 15.8024 18 15.5682 18 15.2791C18 14.9901 17.7762 14.7559 17.5 14.7559L12.9496 14.7559C12.7172 13.5633 11.7074 12.6628 10.5 12.6628C9.2926 12.6628 8.2828 13.5633 8.0504 14.7559ZM12 15.2791C12 16.1448 11.3272 16.8489 10.5 16.8489C9.6728 16.8489 9 16.1448 9 15.2791C9 14.4134 9.6728 13.7094 10.5 13.7094C11.3272 13.7094 12 14.4134 12 15.2791Z" fill="#222222"/>
</g>
<defs>
<clipPath id="clip0_115_1224">
<rect width="18" height="18" fill="white" transform="translate(18) rotate(90)"/>
</clipPath>
</defs>
</svg>
