<svg width="18" height="15" viewBox="0 0 18 15" fill="none" xmlns="http://www.w3.org/2000/svg">
<path d="M15.1522 0.00153584C14.9501 0.0165403 14.7518 0.0649236 14.5649 0.144798H14.5623C14.3829 0.217393 13.5299 0.583579 12.2331 1.13864L7.58605 3.13596C4.25151 4.56858 0.973627 5.97936 0.973627 5.97936L1.01266 5.96395C1.01266 5.96395 0.786661 6.03975 0.550593 6.20486C0.404752 6.29957 0.279255 6.42348 0.181697 6.56912C0.0658664 6.74257 -0.0273018 7.0079 0.00732154 7.28222C0.0639779 7.74605 0.358591 8.02423 0.570108 8.17777C0.784143 8.33324 0.988106 8.40583 0.988106 8.40583H0.993142L4.06707 9.46263C4.20493 9.91426 5.00378 12.5945 5.19579 13.2119C5.3091 13.5806 5.41926 13.8113 5.55713 13.9873C5.62386 14.0772 5.70192 14.1524 5.79571 14.2128C5.84448 14.2417 5.89647 14.2646 5.95057 14.2809L5.9191 14.2732C5.92854 14.2757 5.9361 14.2834 5.94302 14.286C5.9682 14.2931 5.9852 14.2956 6.0173 14.3008C6.50392 14.4511 6.89485 14.1427 6.89485 14.1427L6.91688 14.1248L8.73177 12.4384L11.7736 14.8199L11.8428 14.8501C12.4768 15.134 13.1189 14.976 13.4582 14.6972C13.8 14.4164 13.9328 14.0573 13.9328 14.0573L13.9549 13.9995L16.3055 1.7104C16.3722 1.40718 16.3892 1.12322 16.3155 0.847619C16.2396 0.568691 16.0642 0.328795 15.8239 0.174992C15.6221 0.049792 15.3881 -0.0106392 15.1522 0.00153584V0.00153584ZM15.0886 1.31852C15.0861 1.35899 15.0937 1.3545 15.076 1.43223V1.4393L12.7475 13.6005C12.7374 13.6179 12.7204 13.6558 12.6738 13.6937C12.6247 13.7335 12.5857 13.7586 12.3811 13.6757L8.66064 10.7648L6.41327 12.8553L6.8854 9.77807L12.964 3.99618C13.2146 3.75848 13.1308 3.70837 13.1308 3.70837C13.1485 3.4167 12.7525 3.62292 12.7525 3.62292L5.08751 8.46879L5.08499 8.45594L1.41114 7.19356V7.19099L1.4017 7.18906C1.40814 7.18688 1.41444 7.18431 1.42058 7.18135L1.44073 7.17108L1.46024 7.16401C1.46024 7.16401 4.74065 5.75323 8.07519 4.32061C9.74466 3.60301 11.4267 2.88027 12.7204 2.32264C14.014 1.76822 14.9703 1.36156 15.0244 1.33972C15.076 1.31916 15.0515 1.31916 15.0886 1.31916V1.31852Z" fill="#222222"/>
</svg>
